<svg xmlns="http://www.w3.org/2000/svg" xmlns:xlink="http://www.w3.org/1999/xlink" width="1440" height="650.37" viewBox="0 0 1440 650.37"><defs><style>.a{fill:#c5edf2;}.b{fill:url(#a);}.c{clip-path:url(#b);}.d{fill:#97c7cc;opacity:0.147;}.e{fill:#9bd2d9;opacity:0.179;}</style><linearGradient id="a" x1="0.921" y1="0.817" x2="0.135" y2="0.228" gradientUnits="objectBoundingBox"><stop offset="0" stop-color="#c5edf2"/><stop offset="1" stop-color="#e2f9fc"/></linearGradient><clipPath id="b"><path class="a" d="M0,0H1440V588s-409.724,62.37-769.724,62.37S0,588,0,588Z"/></clipPath></defs><path class="b" d="M0,0H1440V588s-409.724,62.37-769.724,62.37S0,588,0,588Z"/><g class="c"><path class="d" d="M-24.432,393.3S268.49,293.292,598.984,411.042s884.62,64.125,884.62,64.125l15.036,140.844L262.495,737.146,7.156,634.078l-43.13-67.505s18.01-159.146,28.1-166.714S-24.432,393.3-24.432,393.3Z"/><path class="e" d="M-41.089,498.4S309.042,295.3,707.2,398.266s537.167,243.021,814.083,182.313S1369.161,700.4,1369.161,700.4L254.849,789.1-2.609,759.833-41.089,505.375Z"/></g></svg>