<svg xmlns="http://www.w3.org/2000/svg" width="38.208" height="39.537" viewBox="0 0 38.208 39.537"><defs><style>.a{fill:#444;}</style></defs><path class="a" d="M16.161,2.524l-3.139-.668a.687.687,0,0,0-.666.226L8.388,6.732a.687.687,0,0,0,.027.921l1.441,1.5-.609.333a.687.687,0,0,0-.3.886l3.24,7.14a.687.687,0,0,0,.991.3l3.5-2.2L30.455,28.7,28.18,30.132a.687.687,0,0,0-.191.983l4.016,5.573a.686.686,0,0,0,.886.2l.109-.06,2.771,2.529a.686.686,0,0,0,.463.18c.021,0,.043,0,.064,0a.687.687,0,0,0,.485-.271L38.5,37.015l3.14.668a.687.687,0,0,0,.666-.226l3.967-4.65a.687.687,0,0,0-.027-.921l-1.441-1.5.61-.333a.687.687,0,0,0,.312-.849l-2.834-7.361A.687.687,0,0,0,41.88,21.5L38.139,23.86,23.965,11.022l2.917-1.837a.687.687,0,0,0,.164-1.018L22.623,2.815a.687.687,0,0,0-.859-.165l-.109.06L18.884.18a.687.687,0,0,0-1.012.095Zm2.356-.82,1.865,1.7L15.052,6.318ZM12.2,7.842,11.1,8.475,9.836,7.151l3.3-3.866,2.134.458Zm.917,8.391L10.464,10.39,21.926,4.127,25.488,8.44Zm4.764-1.378,4.879-3.073L36.933,24.62l-5.279,3.325ZM29.531,30.9l12.375-7.794,2.318,6.021L32.765,35.393Zm6.609,6.93-1.865-1.7L39.6,33.221ZM42.458,31.7l1.094-.633,1.268,1.324-3.3,3.866L39.388,35.8Z" transform="translate(-8.224 -0.001)"/></svg>