<svg xmlns="http://www.w3.org/2000/svg" width="63.283" height="108.21" viewBox="0 0 63.283 108.21"><defs><style>.a,.b,.e{fill:none;}.b{stroke:#fff;stroke-width:4px;}.c,.d{stroke:none;}.d{fill:#fff;}</style></defs><g transform="translate(-1208.877 -161.248)"><g class="a" transform="matrix(-0.966, -0.259, 0.259, -0.966, 1262.917, 200.44)"><path class="c" d="M16,0a16,16,0,0,1,0,32C7.163,32-.994,26.657-.994,17.82S7.163,0,16,0Z"/><path class="d" d="M 16 4 C 12.93202972412109 4 9.690271377563477 5.579519271850586 7.105951309204102 8.333539962768555 C 5.841791152954102 9.680709838867188 4.79850959777832 11.2588996887207 4.088899612426758 12.89748954772949 C 3.370059967041016 14.55740928649902 3.005580902099609 16.21366119384766 3.005580902099609 17.82024002075195 C 3.005580902099609 19.30731964111328 3.330169677734375 20.68817138671875 3.970331192016602 21.92440986633301 C 4.582830429077148 23.10721969604492 5.481611251831055 24.16353034973145 6.641719818115234 25.06398963928223 C 9.045600891113281 26.92987060546875 12.45656967163086 28 16 28 C 19.2053108215332 28 22.21878051757813 26.75177955627441 24.48528099060059 24.48527908325195 C 26.75178146362305 22.21878051757813 28 19.20532035827637 28 16 C 28 12.79467964172363 26.75178146362305 9.781219482421875 24.48528099060059 7.514720916748047 C 22.21878051757813 5.248220443725586 19.2053108215332 4 16 4 M 16 0 C 24.83654975891113 0 32 7.163440704345703 32 16 C 32 24.8365592956543 24.83654975891113 32 16 32 C 7.163440704345703 32 -0.9944190979003906 26.65679931640625 -0.9944190979003906 17.82024002075195 C -0.9944190979003906 8.98369026184082 7.163440704345703 0 16 0 Z"/></g><g class="a" transform="matrix(-0.966, -0.259, 0.259, -0.966, 1228.813, 235.396)"><path class="c" d="M10,0c5.523,0,10.64,6.605,10.64,12.128S15.523,20,10,20,1.845,14.78,1.845,9.257,4.477,0,10,0Z"/><path class="d" d="M 10 4 C 7.85276985168457 4 7.157329559326172 4.837519645690918 6.928799629211426 5.112730026245117 C 6.229879379272461 5.954440116882324 5.844970703125 7.426219940185547 5.844970703125 9.256950378417969 C 5.844970703125 11.32147979736328 6.326339721679688 13.21789932250977 7.165650367736816 14.45993995666504 C 7.885390281677246 15.5250301361084 8.759530067443848 16 10 16 C 12.11783027648926 16 14.01842975616455 15.55506992340088 15.21444988250732 14.77931022644043 C 16.21379089355469 14.1311206817627 16.64017105102539 13.33827018737793 16.64017105102539 12.12824058532715 C 16.64017105102539 10.39253997802734 15.75498008728027 8.261930465698242 14.33003997802734 6.567859649658203 C 12.97758007049561 4.95995044708252 11.3588695526123 4 10 4 M 10 0 C 15.52285003662109 0 20.64016914367676 6.605400085449219 20.64016914367676 12.12824058532715 C 20.64016914367676 17.65110015869141 15.52285003662109 20 10 20 C 4.477149963378906 20 1.844970703125 14.77980041503906 1.844970703125 9.256950378417969 C 1.844970703125 3.734100341796875 4.477149963378906 0 10 0 Z"/></g><g class="b" transform="matrix(-0.966, -0.259, 0.259, -0.966, 1229.881, 269.458)"><circle class="c" cx="5.5" cy="5.5" r="5.5"/><circle class="e" cx="5.5" cy="5.5" r="3.5"/></g></g></svg>