<svg xmlns="http://www.w3.org/2000/svg" width="232" height="27.133" viewBox="0 0 232 27.133"><defs><style>.a,.b{fill:#222;}.b{fill-rule:evenodd;}</style></defs><g transform="translate(-521 -57)"><g transform="translate(521 57)"><g transform="translate(128.91)"><g transform="translate(0 1.072)"><g transform="translate(4.186 1.032)"><g transform="translate(3.103 18.327)"><g transform="translate(4.957)"><path class="a" d="M507.008,142.393h0a.321.321,0,1,1,.214-.552h0l.008.009.015.017a.316.316,0,0,1-.236.526Z" transform="translate(-506.681 -141.749)"/></g><g transform="translate(4.957)"><path class="a" d="M507.008,142.393h0a.321.321,0,1,1,.214-.552h0l.008.009.015.017a.316.316,0,0,1-.236.526Z" transform="translate(-506.681 -141.749)"/></g><g transform="translate(0 4.993)"><path class="a" d="M490.606,158.9a.317.317,0,0,1-.261-.5.322.322,0,0,1,.036-.044.316.316,0,0,1,.542.221.3.3,0,0,1-.01.075A.316.316,0,0,1,490.606,158.9Z" transform="translate(-490.289 -158.26)"/></g></g><g transform="translate(3.103 18.327)"><g transform="translate(4.957)"><path class="a" d="M507.008,142.393h0a.321.321,0,1,1,.214-.552h0l.008.009.015.017a.316.316,0,0,1-.236.526Z" transform="translate(-506.681 -141.749)"/></g><g transform="translate(0 4.993)"><path class="a" d="M490.606,158.9a.317.317,0,0,1-.261-.5.322.322,0,0,1,.036-.044.316.316,0,0,1,.542.221.3.3,0,0,1-.01.075A.316.316,0,0,1,490.606,158.9Z" transform="translate(-490.289 -158.26)"/></g></g><g transform="translate(3.104 18.327)"><path class="a" d="M490.606,147.379a.317.317,0,0,1-.292-.194.32.32,0,0,1-.025-.123.317.317,0,0,1,.057-.181.325.325,0,0,1,.036-.044.316.316,0,0,1,.542.221.3.3,0,0,1-.01.075A.316.316,0,0,1,490.606,147.379Zm4.966-4.986a.319.319,0,0,1-.261-.136.316.316,0,0,1,.474-.417h0l.008.009.015.017a.315.315,0,0,1,.08.21.306.306,0,0,1-.024.121A.316.316,0,0,1,495.572,142.393Z" transform="translate(-490.289 -141.749)"/></g><path class="a" d="M483.444,104.5h-.007a.318.318,0,0,1-.228-.1l-.093-.1c-.357-.382-.708-.777-1.041-1.17-.573-.676-1.126-1.389-1.645-2.121a.313.313,0,0,1-.053-.13,26.5,26.5,0,0,1,0-8.6,26.072,26.072,0,0,1,1.438-5.227c.008-.024.018-.046.027-.068a26.128,26.128,0,0,1,2.1-4.183c.448-.726.939-1.44,1.461-2.123a.318.318,0,0,1,.4-.089.313.313,0,0,1,.155.375,20.558,20.558,0,0,0-.627,2.4c-.1.5-.18,1.014-.238,1.514a20.63,20.63,0,0,0-.145,2.436c0,.051,0,.1,0,.154a20.176,20.176,0,0,0,1.914,8.479c.019.043.036.08.054.116l.035.072c.048.1.1.2.146.3a.312.312,0,0,1-.023.321c-.192.273-.386.568-.578.876-.241.38-.479.789-.709,1.216-.1.187-.206.389-.32.618a21.17,21.17,0,0,0-1.707,4.8h0a.333.333,0,0,1-.086.157A.318.318,0,0,1,483.444,104.5Zm-2.455-3.8c.5.7,1.024,1.375,1.57,2.019.231.273.471.547.717.818a21.8,21.8,0,0,1,1.62-4.363c.117-.236.225-.444.33-.637.236-.439.482-.861.729-1.251.162-.26.327-.511.49-.75l-.068-.14-.035-.071c-.021-.043-.041-.087-.06-.13a20.774,20.774,0,0,1-1.969-8.724c0-.05,0-.108,0-.166a21.275,21.275,0,0,1,.149-2.509c.06-.516.143-1.042.246-1.562q.071-.358.154-.714-.2.3-.381.6a25.542,25.542,0,0,0-2.052,4.094l-.006.014c0,.008-.01.026-.013.033A25.476,25.476,0,0,0,481,92.373a25.88,25.88,0,0,0-.012,8.331Z" transform="translate(-480.025 -80.545)"/><g transform="translate(3.103 18.327)"><path class="a" d="M490.606,147.379a.317.317,0,0,1-.261-.5.323.323,0,0,1,.036-.044.316.316,0,0,1,.542.221.3.3,0,0,1-.01.075A.316.316,0,0,1,490.606,147.379Zm4.966-4.986a.319.319,0,0,1-.261-.136.316.316,0,0,1,.474-.417h0l.008.009.015.017a.316.316,0,0,1-.237.526Z" transform="translate(-490.289 -141.749)"/></g></g><g transform="translate(12.247 19.396)"><path class="a" d="M507.008,142.393h0a.321.321,0,1,1,.214-.552h0l.008.009.015.017a.316.316,0,0,1-.236.526Z" transform="translate(-506.681 -141.749)"/></g><g transform="translate(7.29 24.352)"><path class="a" d="M490.606,158.9a.317.317,0,0,1-.261-.5.322.322,0,0,1,.036-.044.316.316,0,0,1,.542.221.3.3,0,0,1-.01.075A.316.316,0,0,1,490.606,158.9Z" transform="translate(-490.289 -158.26)"/></g><g transform="translate(12.247 19.396)"><path class="a" d="M507.008,142.393h0a.321.321,0,1,1,.214-.552h0l.008.009.015.017a.316.316,0,0,1-.236.526Z" transform="translate(-506.681 -141.749)"/></g><g transform="translate(7.29 24.352)"><path class="a" d="M490.606,158.9a.317.317,0,0,1-.261-.5.322.322,0,0,1,.036-.044.316.316,0,0,1,.542.221.3.3,0,0,1-.01.075A.316.316,0,0,1,490.606,158.9Z" transform="translate(-490.289 -158.26)"/></g><g transform="translate(12.247 19.396)"><path class="a" d="M507.008,142.393h0a.321.321,0,1,1,.214-.552h0l.008.009.015.017a.316.316,0,0,1-.236.526Z" transform="translate(-506.681 -141.749)"/></g><g transform="translate(7.29 24.352)"><path class="a" d="M490.606,158.9a.317.317,0,0,1-.261-.5.322.322,0,0,1,.036-.044.316.316,0,0,1,.542.221.3.3,0,0,1-.01.075A.316.316,0,0,1,490.606,158.9Z" transform="translate(-490.289 -158.26)"/></g><g transform="translate(22.592 1.012)"><path class="a" d="M544.583,104.455l-.038,0a.316.316,0,0,1-.238-.158l-.026-.046a.315.315,0,0,1-.033-.084,21.183,21.183,0,0,0-2.015-5.368c-.1-.191-.208-.38-.316-.567-.139-.238-.258-.434-.371-.615-.16-.258-.33-.517-.5-.771l-.032-.046c-.017-.025-.034-.05-.052-.074a.312.312,0,0,1-.019-.353c.079-.16.154-.317.227-.473s.143-.309.211-.463c.174-.4.337-.808.485-1.213a20.329,20.329,0,0,0,1.181-5.689c.024-.392.036-.755.038-1.111,0-.058,0-.11,0-.159a20.621,20.621,0,0,0-.145-2.433,20.342,20.342,0,0,0-.872-3.939.313.313,0,0,1,.154-.375.318.318,0,0,1,.4.089,26.278,26.278,0,0,1,3.585,6.352.387.387,0,0,1,.018.046c.2.5.389,1.042.562,1.589a26.217,26.217,0,0,1,.868,3.592,26.489,26.489,0,0,1,.35,3.671c.005.225.009.45.009.674a26.5,26.5,0,0,1-.348,4.283.317.317,0,0,1-.054.13,31.883,31.883,0,0,1-2.8,3.416A.317.317,0,0,1,544.583,104.455Zm-3.006-7.949c.177.258.347.519.508.778.116.185.237.386.381.632.111.194.22.388.325.584a21.8,21.8,0,0,1,1.949,5.006,31.188,31.188,0,0,0,2.311-2.869,25.869,25.869,0,0,0,.328-4.111c0-.22,0-.439-.009-.659a25.886,25.886,0,0,0-.341-3.583,25.591,25.591,0,0,0-.847-3.506c-.169-.533-.354-1.057-.551-1.559l-.009-.021a25.562,25.562,0,0,0-2.459-4.743,21.125,21.125,0,0,1,.553,4.805c0,.056,0,.114,0,.17,0,.359-.014.734-.038,1.138a20.952,20.952,0,0,1-1.218,5.865c-.152.417-.32.837-.5,1.25-.071.161-.143.321-.219.48C541.687,96.277,541.633,96.392,541.577,96.506Zm4.078-9.247h0Zm0,0h0Z" transform="translate(-540.895 -80.478)"/></g><g transform="translate(23.733 0.989)"><path class="a" d="M549.984,101a.316.316,0,0,1-.119-.023.313.313,0,0,1-.193-.341,25.812,25.812,0,0,0,.34-4.177c0-.219,0-.439-.009-.658a25.834,25.834,0,0,0-.341-3.578,25.534,25.534,0,0,0-.847-3.5c-.169-.532-.354-1.056-.551-1.557l-.009-.021a25.611,25.611,0,0,0-3.506-6.21l-.007-.009-.012-.015a.311.311,0,0,1,.012-.39.318.318,0,0,1,.346-.094l.026.007a.336.336,0,0,1,.1.046,31.631,31.631,0,0,1,8.712,9.156c.3.482.592.973.858,1.459a.313.313,0,0,1,.027.234,31.095,31.095,0,0,1-4.566,9.54A.317.317,0,0,1,549.984,101Zm-1.146-14.1a.372.372,0,0,1,.018.046c.2.5.389,1.04.562,1.587a26.14,26.14,0,0,1,.868,3.588,26.416,26.416,0,0,1,.35,3.666c.005.225.009.449.009.673a26.528,26.528,0,0,1-.162,2.93,30.692,30.692,0,0,0,1.54-2.674,30.369,30.369,0,0,0,2.143-5.434c-.243-.438-.5-.88-.778-1.316a31,31,0,0,0-7.025-7.847A26.145,26.145,0,0,1,548.838,86.895Zm-.551.3h0Z" transform="translate(-544.667 -80.403)"/></g><g transform="translate(12.247 19.396)"><path class="a" d="M507.008,142.393h0a.321.321,0,1,1,.214-.552h0l.008.009.015.017a.316.316,0,0,1-.236.526Z" transform="translate(-506.681 -141.749)"/></g><g transform="translate(7.29 24.352)"><path class="a" d="M490.606,158.9a.317.317,0,0,1-.261-.5.322.322,0,0,1,.036-.044.316.316,0,0,1,.542.221.3.3,0,0,1-.01.075A.316.316,0,0,1,490.606,158.9Z" transform="translate(-490.289 -158.26)"/></g><g transform="translate(8.473)"><path class="a" d="M498.3,97.314a.316.316,0,0,1-.223-.092l-.024-.026a.318.318,0,0,1-.023-.03c-.219-.315-.426-.63-.617-.935-.179-.289-.333-.549-.471-.794-.169-.3-.338-.617-.5-.938,0-.008-.008-.016-.011-.025s-.009-.018-.014-.028c-.051-.1-.1-.206-.151-.31l-.035-.072c-.021-.043-.041-.088-.06-.131a21.062,21.062,0,0,1-1.969-8.789c0-.051,0-.109,0-.168a21.594,21.594,0,0,1,.149-2.528c.06-.52.143-1.05.246-1.574a21.459,21.459,0,0,1,.646-2.493.322.322,0,0,1,.052-.1c.007-.009.015-.018.021-.027a.319.319,0,0,1,.178-.129c.161-.045.324-.091.485-.132.669-.177,1.345-.327,2.01-.446A26.34,26.34,0,0,1,509.368,78c.166.044.33.089.5.136a.316.316,0,0,1,.167.115.368.368,0,0,1,.035.049.309.309,0,0,1,.029.064,21.256,21.256,0,0,1,.9,4.09,21.539,21.539,0,0,1,.149,2.526c0,.057,0,.115,0,.172,0,.362-.014.74-.038,1.147a21.246,21.246,0,0,1-1.218,5.909c-.152.42-.321.844-.5,1.259-.071.162-.143.324-.219.483s-.151.322-.23.482l-.02.038-.008.016-.008.017c-.291.581-.615,1.159-.963,1.719-.186.3-.391.611-.624.948l-.011.015a.326.326,0,0,1-.257.133,8.021,8.021,0,0,1-4.373-1.3,8.026,8.026,0,0,1-4.369,1.3Zm-.238-.109,0,0Zm5.166-1.585a7.387,7.387,0,0,0,3.651,1.059c.191-.279.362-.54.519-.794.337-.542.65-1.1.932-1.662.006-.015.014-.03.022-.046s.008-.016.013-.023c.079-.161.154-.319.227-.477s.143-.311.211-.467c.174-.4.337-.814.485-1.222a20.616,20.616,0,0,0,1.181-5.732c.024-.395.036-.761.037-1.12,0-.058,0-.11,0-.16a20.922,20.922,0,0,0-.145-2.451,20.645,20.645,0,0,0-.826-3.827l-.333-.09a25.7,25.7,0,0,0-11.107-.435c-.649.116-1.309.262-1.962.435-.111.029-.222.059-.332.09a20.885,20.885,0,0,0-.588,2.3c-.1.508-.18,1.022-.238,1.526a20.945,20.945,0,0,0-.145,2.454c0,.052,0,.1,0,.155a20.455,20.455,0,0,0,1.914,8.542c.019.043.036.081.054.117l.035.072c.048.1.1.2.146.3.01.02.02.041.028.06.157.309.32.613.483.9.133.237.282.489.456.77.159.256.331.518.513.783a7.394,7.394,0,0,0,3.65-1.059,8.04,8.04,0,0,1-1.844-2.019,7.948,7.948,0,0,1-.806-1.651.316.316,0,0,1,.171-.394,7.569,7.569,0,0,1,6.073,0,.317.317,0,0,1,.171.393c-.033.093-.067.185-.1.277A8.016,8.016,0,0,1,503.23,95.62Zm-3.064-3.6a7.321,7.321,0,0,0,.637,1.239,7.42,7.42,0,0,0,1.868,1.989,7.388,7.388,0,0,0,2.506-3.228,6.946,6.946,0,0,0-5.012,0Z" transform="translate(-494.202 -77.131)"/></g><g transform="translate(13.717 13.666)"><path class="a" d="M514.771,127.766a.314.314,0,0,1-.18-.056,8.057,8.057,0,0,1-2.222-2.3,7.948,7.948,0,0,1-.806-1.651.316.316,0,0,1,.171-.394,7.569,7.569,0,0,1,6.073,0,.317.317,0,0,1,.171.393c-.033.093-.067.185-.1.277a8.025,8.025,0,0,1-2.925,3.671A.316.316,0,0,1,514.771,127.766Zm-2.506-3.933a7.323,7.323,0,0,0,.637,1.239,7.42,7.42,0,0,0,1.868,1.989,7.388,7.388,0,0,0,2.506-3.228,6.946,6.946,0,0,0-5.012,0Z" transform="translate(-511.546 -122.733)"/></g><g transform="translate(0 0.986)"><path class="a" d="M471.03,101.007a.317.317,0,0,1-.259-.133,30.94,30.94,0,0,1-4.58-9.559.312.312,0,0,1,.027-.235,31.221,31.221,0,0,1,2.816-4.242,31.887,31.887,0,0,1,4.415-4.573c.752-.636,1.538-1.242,2.338-1.8a.318.318,0,0,1,.105-.048l.014,0a.4.4,0,0,1,.047-.014.317.317,0,0,1,.334.125.312.312,0,0,1,0,.354c-.015.022-.031.043-.049.065-.506.662-.985,1.358-1.423,2.066a25.485,25.485,0,0,0-2.053,4.089l-.006.014c0,.008-.01.025-.013.033a25.419,25.419,0,0,0-1.407,5.1,25.819,25.819,0,0,0,0,8.392.313.313,0,0,1-.192.341A.322.322,0,0,1,471.03,101.007Zm-4.194-9.737a30.256,30.256,0,0,0,3.7,8.127,26.43,26.43,0,0,1,.187-7.247,26.019,26.019,0,0,1,1.438-5.22c.008-.024.018-.046.027-.068a26.082,26.082,0,0,1,2.1-4.178q.185-.3.379-.595-.405.321-.8.654a31.218,31.218,0,0,0-4.328,4.483A30.551,30.551,0,0,0,466.836,91.27Zm9.316-10.278h0Z" transform="translate(-466.18 -80.392)"/></g><g transform="translate(12.247 19.396)"><path class="a" d="M507.008,142.393h0a.321.321,0,1,1,.214-.552h0l.008.009.015.017a.316.316,0,0,1-.236.526Z" transform="translate(-506.681 -141.749)"/></g><g transform="translate(12.257 18.01)"><path class="a" d="M511.4,141.354a5.927,5.927,0,0,1-4.615-2.19.317.317,0,0,1,.244-.516,7.393,7.393,0,0,0,4.191-1.305.317.317,0,0,1,.359,0,7.39,7.39,0,0,0,4.193,1.305.316.316,0,0,1,.244.516A5.934,5.934,0,0,1,511.4,141.354Zm-3.677-2.105a5.33,5.33,0,0,0,7.356,0,8.008,8.008,0,0,1-3.678-1.266A8.007,8.007,0,0,1,507.724,139.249Z" transform="translate(-506.715 -137.286)"/></g><g transform="translate(7.29 24.352)"><path class="a" d="M490.606,158.9a.317.317,0,0,1-.261-.5.322.322,0,0,1,.036-.044.316.316,0,0,1,.542.221.3.3,0,0,1-.01.075A.316.316,0,0,1,490.606,158.9Z" transform="translate(-490.289 -158.26)"/></g></g><g transform="translate(40.601)"><g transform="translate(4.315 21.376)"><path class="a" d="M615.075,145.514l-.043,0a.347.347,0,0,1-.31-.343c0-.03,0-.056,0-.084a.353.353,0,0,1,.644-.167.457.457,0,0,1,.05.1.357.357,0,0,1,.016.144.574.574,0,0,1-.016.084A.361.361,0,0,1,615.075,145.514Z" transform="translate(-614.723 -144.761)"/></g><g transform="translate(12.716 0.012)"><path class="a" d="M647.115,81.6a.351.351,0,0,1-.211-.07c-.093-.069-.185-.136-.281-.2a10.356,10.356,0,0,0-1.272-.754c-.284-.142-.572-.269-.857-.378a10.221,10.221,0,0,0-1.7-.5.352.352,0,0,1-.23-.531,14.4,14.4,0,0,1,6.24-5.508.353.353,0,0,1,.445.133c.008.013.016.028.024.042a.339.339,0,0,1,.051.184v0a.353.353,0,0,1-.074.217,8.99,8.99,0,0,0-1.767,4c-.038.216-.068.443-.089.675-.027.278-.041.563-.041.852a9.015,9.015,0,0,0,.07,1.128c.012.1.026.2.043.3a.352.352,0,0,1-.347.412Zm-3.686-2.482a10.88,10.88,0,0,1,1.32.422c.3.116.614.253.917.4a11.059,11.059,0,0,1,1.008.571c-.019-.249-.029-.5-.029-.757,0-.312.015-.621.044-.918.022-.249.055-.5.1-.73a9.675,9.675,0,0,1,1.173-3.226A13.691,13.691,0,0,0,643.429,79.121Z" transform="translate(-642.507 -73.627)"/></g><g transform="translate(2.463 0.036)"><path class="a" d="M610.21,82.044a.353.353,0,0,1-.34-.444,9.006,9.006,0,0,0,.307-2.34c0-.138,0-.277-.009-.415a9.459,9.459,0,0,0-.1-1.02,8.892,8.892,0,0,0-1.406-3.571.353.353,0,0,1,.441-.516,14.418,14.418,0,0,1,6.076,5.307l.011.019c.034.053.068.106.1.159a.352.352,0,0,1-.235.526,10.309,10.309,0,0,0-4.615,2.212A.352.352,0,0,1,610.21,82.044Zm-.344-7.115a9.6,9.6,0,0,1,.894,2.786,10.148,10.148,0,0,1,.112,1.1q.009.223.009.446a9.806,9.806,0,0,1-.126,1.57,11.014,11.014,0,0,1,3.658-1.661A13.711,13.711,0,0,0,609.866,74.93Z" transform="translate(-608.598 -73.707)"/></g><g transform="translate(16.854 0.052)"><path class="a" d="M660.555,87.251a.353.353,0,0,1-.338-.252,10.272,10.272,0,0,0-1.457-3.007,10.4,10.4,0,0,0-2.309-2.366.353.353,0,0,1-.138-.223c-.019-.112-.035-.223-.048-.336a9.74,9.74,0,0,1-.075-1.212c0-.312.015-.621.044-.918.022-.249.055-.5.1-.73a9.691,9.691,0,0,1,1.906-4.311.353.353,0,0,1,.588.048c.251.461.486.936.7,1.411a19.578,19.578,0,0,1,.986,2.738c.155.562.284,1.118.382,1.655a19.919,19.919,0,0,1,.012,7.217.353.353,0,0,1-.328.288Zm-3.568-6.106a11.1,11.1,0,0,1,3.42,4.329,19.35,19.35,0,0,0,.113-2.091,19.141,19.141,0,0,0-.324-3.51c-.1-.518-.219-1.054-.369-1.6a18.886,18.886,0,0,0-.95-2.639c-.129-.29-.267-.58-.412-.866a8.983,8.983,0,0,0-1.441,3.551c-.038.216-.068.443-.089.675-.027.278-.041.563-.041.852a9.027,9.027,0,0,0,.07,1.128C656.972,81.037,656.979,81.091,656.987,81.145Z" transform="translate(-656.191 -73.757)"/></g><g transform="translate(0.316 4.997)"><path class="a" d="M612.133,109.479a.352.352,0,0,1-.32-.205,21.047,21.047,0,0,0-1.689-3l-.013-.021c-.051-.076-.1-.15-.155-.224l-.03-.044c-.166-.238-.352-.491-.57-.773a21.429,21.429,0,0,0-1.955-2.193c-.246-.24-.5-.473-.747-.692a20.971,20.971,0,0,0-3.356-2.421c-.519-.3-1.054-.58-1.59-.832a.353.353,0,0,1-.2-.268s0,0,0,.009a.355.355,0,0,1,0-.186l.012-.039.006-.019c.014-.046.027-.09.041-.133a11.069,11.069,0,0,1,8.392-7.521c.116-.025.241-.047.376-.068a11.206,11.206,0,0,1,3.969.07l.014,0a10.925,10.925,0,0,1,1.82.535c.3.116.614.253.917.4a11.094,11.094,0,0,1,1.356.8c.1.07.2.142.3.218a11.1,11.1,0,0,1,2.464,2.525,10.976,10.976,0,0,1,1.557,3.214.353.353,0,0,1,.007.173l0,.014-.005.026a.352.352,0,0,1-.2.266c-.151.071-.3.144-.451.22l-.022.01c-.086.043-.171.086-.256.131a21.013,21.013,0,0,0-7.085,6c-.086.112-.165.222-.245.332l-.131.183-.086.122-.035.05-.012.019a20.721,20.721,0,0,0-1.763,3.1.352.352,0,0,1-.32.206Zm-1.412-3.58a21.822,21.822,0,0,1,1.412,2.414,21.532,21.532,0,0,1,1.49-2.521l.014-.022.047-.067.092-.131.133-.186c.083-.116.167-.232.255-.345a21.714,21.714,0,0,1,7.32-6.2q.134-.071.274-.14h0l.021-.01.211-.1a10.275,10.275,0,0,0-1.383-2.769,10.4,10.4,0,0,0-2.309-2.366c-.094-.07-.187-.137-.282-.2a10.361,10.361,0,0,0-1.272-.754c-.284-.142-.572-.269-.857-.378a10.208,10.208,0,0,0-1.692-.5l-.014,0a10.482,10.482,0,0,0-3.732-.067c-.118.018-.23.037-.343.062a10.387,10.387,0,0,0-7.834,6.954c.466.226.93.473,1.381.734a21.655,21.655,0,0,1,3.469,2.5c.258.227.519.468.773.717a22.146,22.146,0,0,1,2.02,2.266c.226.292.419.554.591.8l.03.043c.058.083.116.167.174.252Zm-9.209-7.082h0Z" transform="translate(-601.499 -90.707)"/></g><g transform="translate(8.391 5.18)"><path class="a" d="M628.659,91.7a.353.353,0,0,1-.3-.172c-.031-.052-.063-.1-.1-.155a.352.352,0,0,1,.366-.537c.159.032.317.067.475.1a.352.352,0,0,1-.028.692c-.114.017-.226.037-.338.061A.346.346,0,0,1,628.659,91.7Z" transform="translate(-628.202 -90.833)"/></g><g transform="translate(0.322 12.694)"><path class="a" d="M612.141,130.6a.359.359,0,0,1-.162-.039c-.369-.189-.726-.385-1.061-.584-.552-.326-1.089-.679-1.593-1.048A20.055,20.055,0,0,1,605.6,125.4a.3.3,0,0,1-.021-.028,19.7,19.7,0,0,1-3.678-7.154c-.145-.527-.272-1.078-.376-1.636a.353.353,0,0,1,.5-.384c.555.26,1.108.549,1.644.86a21.658,21.658,0,0,1,3.469,2.5c.258.227.519.468.773.717a22.136,22.136,0,0,1,2.02,2.266c.226.292.418.554.591.8l.03.043c.058.083.116.167.174.252l.013.021a21.822,21.822,0,0,1,1.412,2.414,21.532,21.532,0,0,1,1.49-2.521.237.237,0,0,1,.014-.022l.047-.067c.031-.044.061-.088.092-.131l.133-.186c.083-.116.167-.232.255-.345a21.714,21.714,0,0,1,7.32-6.2q.134-.071.274-.14h0l.021-.01c.153-.077.306-.151.461-.224a.352.352,0,0,1,.5.382q-.047.256-.1.508c-.011.054-.024.116-.038.177a.476.476,0,0,1-.012.052,19.771,19.771,0,0,1-3.915,8.052,19.5,19.5,0,0,1-1.529,1.676c-.024.026-.058.06-.094.092a19.836,19.836,0,0,1-2,1.693,19.488,19.488,0,0,1-1.693,1.12c-.325.194-.675.386-1.066.588A.353.353,0,0,1,612.141,130.6Zm-5.982-5.633a19.363,19.363,0,0,0,3.581,3.393c.487.356,1,.7,1.536,1.01.275.163.565.324.864.48.314-.165.6-.324.869-.484a18.811,18.811,0,0,0,1.633-1.08,19.192,19.192,0,0,0,1.937-1.642c.031-.029.052-.049.072-.071a19.011,19.011,0,0,0,5.26-9.4l-.088.046a21.013,21.013,0,0,0-7.085,6c-.086.112-.165.222-.245.332l-.131.183-.086.122-.035.05-.012.019a20.726,20.726,0,0,0-1.763,3.1.363.363,0,0,1-.32.206.352.352,0,0,1-.32-.205,21.077,21.077,0,0,0-1.689-3l-.013-.021c-.051-.076-.1-.15-.155-.224l-.03-.044c-.166-.238-.352-.491-.57-.773a21.43,21.43,0,0,0-1.955-2.193c-.246-.24-.5-.473-.747-.692a20.974,20.974,0,0,0-3.356-2.421c-.312-.181-.63-.354-.951-.518.067.3.141.593.22.881a18.985,18.985,0,0,0,3.559,6.913l.019.026Z" transform="translate(-601.518 -116.161)"/></g><path class="a" d="M601.1,87.017a.353.353,0,0,1-.347-.291,20.091,20.091,0,0,1-.3-3.461,19.623,19.623,0,0,1,1.738-8.112c.212-.47.444-.935.692-1.384a.353.353,0,0,1,.443-.156c.036.015.072.032.108.05a.351.351,0,0,1,.128.116,9.592,9.592,0,0,1,1.517,3.853,10.163,10.163,0,0,1,.112,1.1q.01.223.009.446a9.688,9.688,0,0,1-.331,2.523.35.35,0,0,1-.114.179,10.339,10.339,0,0,0-3.242,4.834.351.351,0,0,1-.114.168c-.03.024-.061.049-.093.072A.353.353,0,0,1,601.1,87.017Zm2.142-12.423c-.143.279-.28.564-.409.849a18.926,18.926,0,0,0-1.675,7.822,19.362,19.362,0,0,0,.113,2.09,11.049,11.049,0,0,1,2.944-3.944,9,9,0,0,0,.279-2.234c0-.138,0-.277-.009-.415a9.474,9.474,0,0,0-.1-1.02A8.891,8.891,0,0,0,603.242,74.593Z" transform="translate(-600.453 -73.587)"/></g><g transform="translate(69.204 1.072)"><g transform="translate(4.186 1.032)"><g transform="translate(3.104 18.327)"><g transform="translate(4.956)"><path class="a" d="M735.877,142.393h0a.321.321,0,1,1,.214-.552h0l.008.009.015.017a.316.316,0,0,1-.236.526Z" transform="translate(-735.55 -141.749)"/></g><g transform="translate(4.956)"><path class="a" d="M735.877,142.393h0a.321.321,0,1,1,.214-.552h0l.008.009.015.017a.316.316,0,0,1-.236.526Z" transform="translate(-735.55 -141.749)"/></g><g transform="translate(0 4.993)"><path class="a" d="M719.475,158.9a.317.317,0,0,1-.26-.5.3.3,0,0,1,.036-.044.317.317,0,1,1,.224.542Z" transform="translate(-719.158 -158.26)"/></g></g><g transform="translate(3.104 18.327)"><g transform="translate(4.956)"><path class="a" d="M735.877,142.393h0a.321.321,0,1,1,.214-.552h0l.008.009.015.017a.316.316,0,0,1-.236.526Z" transform="translate(-735.55 -141.749)"/></g><g transform="translate(0 4.993)"><path class="a" d="M719.475,158.9a.317.317,0,0,1-.26-.5.3.3,0,0,1,.036-.044.317.317,0,1,1,.224.542Z" transform="translate(-719.158 -158.26)"/></g></g><g transform="translate(3.104 18.327)"><path class="a" d="M719.475,147.379a.317.317,0,0,1-.26-.5.3.3,0,0,1,.036-.044.316.316,0,0,1,.542.221.312.312,0,0,1-.009.075A.316.316,0,0,1,719.475,147.379Zm4.966-4.986a.32.32,0,0,1-.262-.136.316.316,0,0,1,.474-.417h0l.008.009.015.017a.316.316,0,0,1-.236.526Z" transform="translate(-719.158 -141.749)"/></g><path class="a" d="M712.313,104.5h-.007a.318.318,0,0,1-.228-.1l-.093-.1c-.357-.382-.708-.777-1.041-1.17-.573-.676-1.126-1.389-1.645-2.121a.314.314,0,0,1-.054-.13,26.493,26.493,0,0,1,0-8.6,26.073,26.073,0,0,1,1.438-5.227.7.7,0,0,1,.027-.068,26.123,26.123,0,0,1,2.1-4.183c.448-.726.939-1.44,1.461-2.123a.318.318,0,0,1,.4-.089.313.313,0,0,1,.155.375,20.631,20.631,0,0,0-.627,2.4c-.1.5-.18,1.014-.238,1.514a20.7,20.7,0,0,0-.145,2.436c0,.051,0,.1,0,.154a20.179,20.179,0,0,0,1.913,8.479c.019.043.036.08.054.116l.035.072c.048.1.1.2.146.3a.313.313,0,0,1-.023.321c-.192.273-.386.568-.578.876-.24.38-.479.789-.709,1.216-.1.187-.206.389-.32.618a21.167,21.167,0,0,0-1.707,4.8h0a.332.332,0,0,1-.086.157A.317.317,0,0,1,712.313,104.5Zm-2.455-3.8c.5.7,1.024,1.375,1.57,2.019.231.273.471.547.717.818a21.814,21.814,0,0,1,1.62-4.363c.118-.236.226-.444.33-.637.237-.439.482-.861.73-1.251.162-.26.326-.511.49-.75l-.068-.14-.034-.071c-.021-.043-.041-.087-.06-.13a20.778,20.778,0,0,1-1.969-8.724c0-.05,0-.108,0-.166a21.276,21.276,0,0,1,.149-2.509c.06-.516.143-1.042.246-1.562q.071-.358.154-.714-.2.3-.381.6a25.569,25.569,0,0,0-2.053,4.094l-.006.014c0,.008-.01.026-.013.033a25.432,25.432,0,0,0-1.407,5.11,25.89,25.89,0,0,0-.012,8.331Z" transform="translate(-708.894 -80.545)"/><g transform="translate(3.104 18.327)"><path class="a" d="M719.475,147.379a.317.317,0,0,1-.26-.5.3.3,0,0,1,.036-.044.317.317,0,1,1,.224.542Zm4.966-4.986a.32.32,0,0,1-.262-.136.316.316,0,0,1,.474-.417h0l.008.009.015.017a.316.316,0,0,1-.236.526Z" transform="translate(-719.158 -141.749)"/></g></g><g transform="translate(12.246 19.396)"><path class="a" d="M735.877,142.393h0a.321.321,0,1,1,.214-.552h0l.008.009.015.017a.316.316,0,0,1-.236.526Z" transform="translate(-735.55 -141.749)"/></g><g transform="translate(7.29 24.352)"><path class="a" d="M719.475,158.9a.317.317,0,0,1-.26-.5.3.3,0,0,1,.036-.044.317.317,0,1,1,.224.542Z" transform="translate(-719.158 -158.26)"/></g><g transform="translate(12.246 19.396)"><path class="a" d="M735.877,142.393h0a.321.321,0,1,1,.214-.552h0l.008.009.015.017a.316.316,0,0,1-.236.526Z" transform="translate(-735.55 -141.749)"/></g><g transform="translate(7.29 24.352)"><path class="a" d="M719.475,158.9a.317.317,0,0,1-.26-.5.3.3,0,0,1,.036-.044.317.317,0,1,1,.224.542Z" transform="translate(-719.158 -158.26)"/></g><g transform="translate(12.246 19.396)"><path class="a" d="M735.877,142.393h0a.321.321,0,1,1,.214-.552h0l.008.009.015.017a.316.316,0,0,1-.236.526Z" transform="translate(-735.55 -141.749)"/></g><g transform="translate(7.29 24.352)"><path class="a" d="M719.475,158.9a.317.317,0,0,1-.26-.5.3.3,0,0,1,.036-.044.317.317,0,1,1,.224.542Z" transform="translate(-719.158 -158.26)"/></g><g transform="translate(22.592 1.012)"><path class="a" d="M773.452,104.455l-.038,0a.316.316,0,0,1-.238-.158l-.026-.046a.308.308,0,0,1-.032-.084A21.186,21.186,0,0,0,771.1,98.8q-.154-.286-.316-.567c-.139-.238-.257-.434-.37-.615-.16-.258-.33-.517-.5-.771l-.032-.046c-.017-.025-.034-.05-.052-.074a.312.312,0,0,1-.019-.353c.079-.16.154-.317.227-.473s.144-.309.211-.463c.174-.4.337-.808.485-1.213a20.33,20.33,0,0,0,1.181-5.689c.024-.392.036-.755.037-1.111,0-.058,0-.11,0-.159a20.467,20.467,0,0,0-1.016-6.372.313.313,0,0,1,.154-.375.318.318,0,0,1,.4.089,26.277,26.277,0,0,1,3.585,6.352.432.432,0,0,1,.018.046c.2.5.388,1.042.562,1.589a26.207,26.207,0,0,1,.868,3.592,26.5,26.5,0,0,1,.35,3.671c.005.225.009.45.009.674a26.507,26.507,0,0,1-.348,4.283.316.316,0,0,1-.053.13,31.914,31.914,0,0,1-2.8,3.416A.317.317,0,0,1,773.452,104.455Zm-3.006-7.949c.177.258.347.519.508.778.116.185.237.386.381.632.112.194.22.388.325.584a21.809,21.809,0,0,1,1.949,5.006,31.249,31.249,0,0,0,2.311-2.869,25.9,25.9,0,0,0,.328-4.111c0-.22,0-.439-.009-.659a25.427,25.427,0,0,0-1.188-7.089c-.169-.533-.354-1.057-.551-1.559l-.009-.021a25.575,25.575,0,0,0-2.459-4.743,21.125,21.125,0,0,1,.553,4.805c0,.056,0,.114,0,.17,0,.359-.014.734-.038,1.138a20.967,20.967,0,0,1-1.218,5.865c-.152.417-.32.837-.5,1.25-.071.161-.143.321-.219.48C770.557,96.277,770.5,96.392,770.446,96.506Zm4.078-9.247h0Zm0,0h0Z" transform="translate(-769.764 -80.478)"/></g><g transform="translate(23.733 0.989)"><path class="a" d="M778.854,101a.316.316,0,0,1-.312-.364,25.812,25.812,0,0,0,.34-4.177c0-.219,0-.439-.008-.658a25.362,25.362,0,0,0-1.188-7.08c-.169-.532-.354-1.056-.551-1.557l-.009-.021a25.609,25.609,0,0,0-3.506-6.21l-.007-.009L773.6,80.9a.312.312,0,0,1,.011-.39.319.319,0,0,1,.347-.094l.026.007a.336.336,0,0,1,.1.046,31.641,31.641,0,0,1,8.712,9.156c.3.482.592.973.858,1.459a.312.312,0,0,1,.027.234,31.074,31.074,0,0,1-4.566,9.54A.317.317,0,0,1,778.854,101Zm-1.146-14.1a.435.435,0,0,1,.018.046c.2.5.388,1.04.562,1.587a26.139,26.139,0,0,1,.867,3.588,26.436,26.436,0,0,1,.35,3.666c.005.225.009.449.009.673a26.528,26.528,0,0,1-.163,2.93,30.438,30.438,0,0,0,3.683-8.107c-.243-.438-.5-.88-.778-1.316a31.011,31.011,0,0,0-7.025-7.847A26.141,26.141,0,0,1,777.708,86.895Zm-.551.3h0Z" transform="translate(-773.537 -80.403)"/></g><g transform="translate(12.246 19.396)"><path class="a" d="M735.877,142.393h0a.321.321,0,1,1,.214-.552h0l.008.009.015.017a.316.316,0,0,1-.236.526Z" transform="translate(-735.55 -141.749)"/></g><g transform="translate(7.29 24.352)"><path class="a" d="M719.475,158.9a.317.317,0,0,1-.26-.5.3.3,0,0,1,.036-.044.317.317,0,1,1,.224.542Z" transform="translate(-719.158 -158.26)"/></g><g transform="translate(8.473)"><path class="a" d="M727.171,97.314a.316.316,0,0,1-.223-.092l-.024-.026a.372.372,0,0,1-.023-.03c-.219-.315-.426-.63-.617-.935-.179-.289-.333-.549-.471-.794-.17-.3-.338-.617-.5-.938l-.011-.025c0-.009-.009-.018-.013-.028-.051-.1-.1-.206-.151-.31l-.034-.072c-.021-.043-.041-.088-.06-.131a21.06,21.06,0,0,1-1.969-8.789c0-.051,0-.109,0-.168a21.594,21.594,0,0,1,.149-2.528c.06-.52.143-1.05.246-1.574a21.564,21.564,0,0,1,.646-2.493.316.316,0,0,1,.052-.1c.007-.009.014-.018.021-.027a.317.317,0,0,1,.177-.129c.161-.045.324-.091.485-.132.669-.177,1.345-.327,2.01-.446A26.34,26.34,0,0,1,738.237,78c.165.044.33.089.5.136a.317.317,0,0,1,.168.115.342.342,0,0,1,.035.049.325.325,0,0,1,.03.064,21.274,21.274,0,0,1,.9,4.09,21.532,21.532,0,0,1,.149,2.526c0,.057,0,.115,0,.172,0,.362-.014.74-.038,1.147a21.255,21.255,0,0,1-1.218,5.909c-.152.42-.32.844-.5,1.259-.071.162-.143.324-.219.483s-.151.322-.23.482l-.02.038-.008.016-.008.017c-.291.581-.615,1.159-.963,1.719-.187.3-.391.611-.624.948l-.011.015a.326.326,0,0,1-.257.133,8.019,8.019,0,0,1-4.373-1.3,8.027,8.027,0,0,1-4.369,1.3Zm-.238-.109,0,0ZM732.1,95.62a7.388,7.388,0,0,0,3.651,1.059c.191-.279.362-.54.519-.794.337-.542.651-1.1.932-1.662l.022-.046.012-.023c.079-.161.154-.319.227-.477s.144-.311.211-.467c.174-.4.337-.814.485-1.222a20.616,20.616,0,0,0,1.181-5.732c.024-.395.036-.761.038-1.12,0-.058,0-.11,0-.16a20.85,20.85,0,0,0-.145-2.451,20.618,20.618,0,0,0-.826-3.827l-.333-.09a25.7,25.7,0,0,0-11.107-.435c-.649.116-1.308.262-1.962.435-.111.029-.222.059-.332.09a20.933,20.933,0,0,0-.588,2.3c-.1.508-.18,1.022-.238,1.526a21,21,0,0,0-.145,2.454c0,.052,0,.1,0,.155a20.459,20.459,0,0,0,1.913,8.542c.019.043.036.081.054.117l.035.072c.048.1.1.2.146.3.01.02.02.041.029.06.157.309.32.613.483.9.133.237.282.489.456.77.16.256.332.518.513.783a7.4,7.4,0,0,0,3.65-1.059,8.033,8.033,0,0,1-2.65-3.67.317.317,0,0,1,.171-.394,7.568,7.568,0,0,1,6.073,0,.316.316,0,0,1,.171.393c-.032.093-.067.185-.1.277A8.015,8.015,0,0,1,732.1,95.62Zm-3.064-3.6a7.414,7.414,0,0,0,2.506,3.228,7.39,7.39,0,0,0,2.506-3.228,6.946,6.946,0,0,0-5.012,0Z" transform="translate(-723.071 -77.131)"/></g><g transform="translate(13.717 13.666)"><path class="a" d="M743.64,127.766a.315.315,0,0,1-.18-.056,8.061,8.061,0,0,1-2.222-2.3,7.978,7.978,0,0,1-.806-1.651.317.317,0,0,1,.171-.394,7.568,7.568,0,0,1,6.073,0,.316.316,0,0,1,.171.393c-.032.093-.067.185-.1.277a8.027,8.027,0,0,1-2.925,3.671A.316.316,0,0,1,743.64,127.766Zm-2.506-3.933a7.416,7.416,0,0,0,2.506,3.228,7.389,7.389,0,0,0,2.506-3.228,6.946,6.946,0,0,0-5.012,0Z" transform="translate(-740.415 -122.733)"/></g><g transform="translate(0 0.986)"><path class="a" d="M699.9,101.007a.317.317,0,0,1-.259-.133,30.938,30.938,0,0,1-4.58-9.559.311.311,0,0,1,.027-.235,31.2,31.2,0,0,1,2.817-4.242,31.857,31.857,0,0,1,4.415-4.573c.752-.636,1.539-1.242,2.338-1.8a.316.316,0,0,1,.105-.048l.014,0a.4.4,0,0,1,.046-.014.318.318,0,0,1,.334.125.311.311,0,0,1,0,.354c-.015.022-.031.043-.048.065-.506.662-.985,1.358-1.423,2.066a25.519,25.519,0,0,0-2.053,4.089l-.006.014c0,.008-.01.025-.013.033a25.385,25.385,0,0,0-1.407,5.1,25.819,25.819,0,0,0,0,8.392.313.313,0,0,1-.193.341A.321.321,0,0,1,699.9,101.007ZM695.7,91.27a30.258,30.258,0,0,0,3.7,8.127,26.434,26.434,0,0,1,.187-7.247,26.026,26.026,0,0,1,1.438-5.22.681.681,0,0,1,.027-.068,26.079,26.079,0,0,1,2.1-4.178q.185-.3.379-.595-.4.321-.8.654a31.251,31.251,0,0,0-4.328,4.483A30.575,30.575,0,0,0,695.7,91.27Zm9.316-10.278h0Z" transform="translate(-695.049 -80.392)"/></g><g transform="translate(12.246 19.396)"><path class="a" d="M735.877,142.393h0a.321.321,0,1,1,.214-.552h0l.008.009.015.017a.316.316,0,0,1-.236.526Z" transform="translate(-735.55 -141.749)"/></g><g transform="translate(12.257 18.01)"><path class="a" d="M740.271,141.354a5.926,5.926,0,0,1-4.615-2.19.316.316,0,0,1,.244-.516,7.4,7.4,0,0,0,4.191-1.305.316.316,0,0,1,.359,0,7.391,7.391,0,0,0,4.193,1.305.316.316,0,0,1,.244.516A5.934,5.934,0,0,1,740.271,141.354Zm-3.677-2.105a5.329,5.329,0,0,0,7.355,0,8.009,8.009,0,0,1-3.678-1.266A8.008,8.008,0,0,1,736.594,139.249Z" transform="translate(-735.585 -137.286)"/></g><g transform="translate(7.29 24.352)"><path class="a" d="M719.475,158.9a.317.317,0,0,1-.26-.5.3.3,0,0,1,.036-.044.317.317,0,1,1,.224.542Z" transform="translate(-719.158 -158.26)"/></g></g></g><g transform="translate(0 4.733)"><path class="b" d="M42.259,99.823h9.133v2.444H40.716l-3.012,4.77H34.774l11.553-17.48h4.228l11.692,17.479H59.318L48.987,91.06H47.793Z" transform="translate(-34.774 -89.549)"/><path class="b" d="M162.59,99.832h9.083v2.459H161.151L157.774,107h-3.009l11.7-17.441h2.666Z" transform="translate(-118.483 -89.549)"/><path class="b" d="M122.572,89.642l-8.628,13.07L105.4,89.634l-3.135.007,0,0,11.27,16.916.913,0h0v0l11.27-16.916,0,0Z" transform="translate(-81.852 -89.603)"/><path class="b" d="M215.923,107.07h2.931L207.291,89.695h-2.931Z" transform="translate(-153.082 -89.645)"/><path class="b" d="M232.3,107.07h2.931L223.671,89.695H220.74Z" transform="translate(-164.509 -89.645)"/><path class="b" d="M248.681,107.07h2.931L240.049,89.695h-2.93Z" transform="translate(-175.935 -89.645)"/><path class="b" d="M290.608,89.585c1.155,0,2.269.02,3.411.02l10.538,12.8-.025-12.875h2.274l.031,17.449h-2.274v-.039h-.068L293.738,93.7l-.856,0v13.221h-2.274Z" transform="translate(-213.251 -89.531)"/><path class="b" d="M350.678,89.8h16.68v2.6h-7.175v14.786h-2.331V92.4h-7.175Z" transform="translate(-255.157 -89.72)"/><rect class="a" width="2.345" height="17.412" transform="translate(113.71 0.129)"/></g></g></g></svg>