<svg xmlns="http://www.w3.org/2000/svg" width="36.147" height="23.495" viewBox="0 0 36.147 23.495"><defs><style>.a{fill:#444;}</style></defs><path class="a" d="M51.545,123.884h-.075l-1.135-8.514a.6.6,0,0,0-.6-.523H47.929a4.772,4.772,0,0,0-1.411-3.408A4.833,4.833,0,0,0,44,110.11a4.82,4.82,0,0,0-4.651-3.092,7.231,7.231,0,0,0-11.749,0,4.82,4.82,0,0,0-4.651,3.092,4.833,4.833,0,0,0-2.522,1.329,4.772,4.772,0,0,0-1.411,3.408h-.6a.6.6,0,0,0-.6.523l-1.135,8.514H16.6a.6.6,0,0,0-.6.6v2.41a.6.6,0,0,0,.6.6H51.545a.6.6,0,0,0,.6-.6v-2.41A.6.6,0,0,0,51.545,123.884ZM21.276,112.291a3.572,3.572,0,0,1,2.184-1.039.6.6,0,0,0,.517-.431,3.615,3.615,0,0,1,3.859-2.579.6.6,0,0,0,.57-.272,6.026,6.026,0,0,1,10.131,0,.6.6,0,0,0,.57.272,3.615,3.615,0,0,1,3.859,2.579.6.6,0,0,0,.517.431,3.616,3.616,0,0,1,3.244,3.6H20.216A3.581,3.581,0,0,1,21.276,112.291Zm-2.339,3.761H49.21l1.044,7.832H17.893Zm32.005,10.242H17.2v-1.2H50.942Z" transform="translate(-16 -104.003)"/><path class="a" d="M433.2,308.522a.6.6,0,1,0-1.194.159l.281,2.109a.6.6,0,1,0,1.194-.159Z" transform="translate(-400.671 -292.637)"/><path class="a" d="M203.475,280a1.956,1.956,0,0,0-1.774,1.15h-1.435a2.673,2.673,0,1,0-.228,3.505h1.89A2.5,2.5,0,1,0,203.475,280Zm.607,3.056a.739.739,0,1,1-1.275.739.6.6,0,0,0-.544-.344H199.7a.6.6,0,0,0-.544.344.739.739,0,1,1-1.275-.738.6.6,0,0,0,0-.69.739.739,0,1,1,1.338-.529.6.6,0,0,0,.6.518h2.327a.6.6,0,0,0,.6-.517.739.739,0,1,1,1.338.529.6.6,0,0,0,0,.689Z" transform="translate(-182.952 -266.745)"/><path class="a" d="M153.807,192A1.809,1.809,0,0,0,152,193.807a.6.6,0,0,0,1.2,0,.6.6,0,0,1,1.2,0,.6.6,0,1,0,1.2,0A1.809,1.809,0,0,0,153.807,192Z" transform="translate(-141.758 -185.373)"/><path class="a" d="M329.807,200A1.809,1.809,0,0,0,328,201.807a.6.6,0,1,0,1.2,0,.6.6,0,1,1,1.2,0,.6.6,0,1,0,1.2,0A1.809,1.809,0,0,0,329.807,200Z" transform="translate(-304.504 -192.771)"/></svg>