<svg xmlns="http://www.w3.org/2000/svg" width="45.297" height="30.304" viewBox="0 0 45.297 30.304"><defs><style>.a{fill:#444;}</style></defs><path class="a" d="M41.749,83.069a12.39,12.39,0,0,0-8.608-3.631H11.976A12.245,12.245,0,0,0,0,91.623v6.04a12.093,12.093,0,0,0,12.079,12.079H33.218A12.093,12.093,0,0,0,45.3,97.663v-6.04A12.029,12.029,0,0,0,41.749,83.069ZM12,80.948H33.122a10.886,10.886,0,0,1,7.559,3.188,10.529,10.529,0,0,1,3.107,7.487v.192c-.048-.086-.1-.173-.146-.258A12.31,12.31,0,0,0,39.283,87.2a.754.754,0,0,0-.2-.083,9.054,9.054,0,0,0-7.37-3.8,8.962,8.962,0,0,0-3.88.871l-.012-.008a9.063,9.063,0,0,0-10.335,0l-.012.008A9.06,9.06,0,0,0,6.293,87.009,12.259,12.259,0,0,0,1.51,91.8v-.177A10.728,10.728,0,0,1,12,80.948ZM5.251,92.375c.023,0,.046,0,.069,0a.755.755,0,0,0,.751-.687,7.558,7.558,0,0,1,10.106-6.408,9.03,9.03,0,0,0-1.969,3.046.755.755,0,1,0,1.394.579l.012-.03a7.553,7.553,0,0,1,14.071,0,.755.755,0,1,0,1.418-.519l-.012-.03a9.03,9.03,0,0,0-1.969-3.046,7.556,7.556,0,0,1,10.137,7.1.755.755,0,1,0,1.51,0,9.039,9.039,0,0,0-.335-2.441,10.724,10.724,0,0,1,1.906,2.385,10.5,10.5,0,0,1,1.007,2.322,10.6,10.6,0,0,1-10.129,7.55H28.357a2.262,2.262,0,0,0-2.2,1.716l-.326,1.3H19.463l-.326-1.3a2.262,2.262,0,0,0-2.2-1.716H12.079A10.6,10.6,0,0,1,1.95,94.641,10.686,10.686,0,0,1,4.873,89.9a9.038,9.038,0,0,0-.306,1.653.755.755,0,0,0,.684.82Zm27.967,15.857H12.079A10.581,10.581,0,0,1,1.51,97.663c0-.063,0-.125,0-.188A12.12,12.12,0,0,0,12.079,103.7H16.94a.754.754,0,0,1,.732.572l.469,1.876a.755.755,0,0,0,.732.572h7.55a.755.755,0,0,0,.732-.572l.469-1.876a.754.754,0,0,1,.732-.572h4.861a12.12,12.12,0,0,0,10.566-6.228c0,.063,0,.125,0,.188A10.581,10.581,0,0,1,33.218,108.233Z" transform="translate(0 -79.438)"/><path class="a" d="M184,237.085a2.267,2.267,0,0,0,2.265,2.265h6.04a2.265,2.265,0,1,0,0-4.53h-.1a3.02,3.02,0,0,0-5.849,0h-.1A2.267,2.267,0,0,0,184,237.085Zm3.02-.755a.755.755,0,0,0,.755-.755,1.51,1.51,0,0,1,3.02,0,.755.755,0,0,0,.755.755h.755a.755.755,0,1,1,0,1.51h-6.04a.755.755,0,1,1,0-1.51Z" transform="translate(-166.636 -218.105)"/><path class="a" d="M218.265,173.093A2.265,2.265,0,1,0,216,170.828,2.265,2.265,0,0,0,218.265,173.093Zm0-3.02a.755.755,0,1,1-.755.755A.755.755,0,0,1,218.265,170.073Z" transform="translate(-195.616 -160.152)"/><path class="a" d="M162.265,205.093A2.265,2.265,0,1,0,160,202.828,2.265,2.265,0,0,0,162.265,205.093Zm0-3.02a.755.755,0,1,1-.755.755A.755.755,0,0,1,162.265,202.073Z" transform="translate(-144.901 -189.132)"/><path class="a" d="M274.265,205.093A2.265,2.265,0,1,0,272,202.828,2.265,2.265,0,0,0,274.265,205.093Zm0-3.02a.755.755,0,1,1-.755.755A.755.755,0,0,1,274.265,202.073Z" transform="translate(-246.331 -189.132)"/></svg>